<svg width="96" height="49" viewBox="0 0 96 49" fill="none" xmlns="http://www.w3.org/2000/svg">
<path d="M56.9728 24.4861C56.9728 24.8757 56.962 25.2653 56.9728 25.6555C57.0925 29.6192 55.9808 33.1902 54.1959 36.5575C53.5975 37.6868 53.0255 38.8352 52.5101 40.0147C52.0848 40.9845 51.4939 41.6642 50.5748 42.0616C50.0615 42.2828 49.5855 42.6664 49.1553 43.0614C47.1747 44.8817 44.9277 46.1853 42.5244 47.1036C40.9281 47.7131 39.2844 48.2496 37.5502 48.2256C37.0332 48.219 36.5151 48.3958 35.997 48.3976C35.4789 48.3994 34.9614 48.2124 34.4482 48.237C32.212 48.3437 30.1402 47.5777 28.0836 46.7739C25.8388 45.8976 23.8565 44.5131 21.9918 42.863C19.3604 40.5356 17.4855 37.604 16.107 34.2481C15.3641 32.4392 14.7592 30.5722 14.5883 28.5649C14.5598 28.2316 14.4606 27.9019 14.3727 27.5789C13.7474 25.327 14.1069 23.1189 14.494 20.8755C14.79 19.1594 15.0946 17.4644 15.6709 15.8353C17.1943 11.5264 19.6138 7.99784 22.9649 5.22633C25.7585 2.91813 28.8852 1.4994 32.2848 0.889838C36.1857 0.190365 39.9939 0.693842 43.6889 2.32834C45.5326 3.14649 47.2722 4.18281 48.7914 5.55478C50.2087 6.83445 51.4869 8.3317 52.6945 9.86191C53.7889 11.2489 54.5657 12.9007 55.2595 14.5862C56.3431 17.2193 57.0493 19.9446 56.9776 22.8726C56.962 23.4138 56.9733 23.9503 56.9728 24.4861ZM55.4752 19.1516C55.3673 18.2316 55.3 17.1653 55.0978 16.1308C54.522 13.1537 52.9732 10.8299 50.909 8.93227C49.737 7.8534 48.4593 6.91597 47.2 5.96236C46.7736 5.6393 46.2781 5.34261 45.78 5.24311C44.4997 4.98058 43.2048 4.73544 41.9071 4.66171C39.6548 4.53405 37.6316 3.88732 35.9312 2.14433C34.6795 0.862266 33.3166 0.738195 32.0158 1.86682C30.5413 3.14469 28.8631 3.89511 27.1526 4.63774C25.8992 5.18197 24.6921 5.86766 23.4867 6.54496C22.4797 7.11197 21.8931 7.99605 21.9071 9.33505C21.9152 10.0861 21.6058 10.7136 20.981 11.1296C20.4596 11.4786 19.9588 11.8644 19.4817 12.2846C18.1486 13.4522 17.1097 14.7672 16.8854 16.8081C16.7081 18.4222 16.2693 20.0177 15.2752 21.3472C14.943 21.8046 14.7371 22.3592 14.6822 22.9439C14.5905 24.1504 14.6282 25.3714 14.6552 26.5851C14.6627 26.91 14.7894 27.2582 14.9388 27.5441C15.2821 28.2196 15.656 28.8754 16.059 29.5089C17.0348 31.0187 17.8833 32.5657 18.0795 34.4837C18.2693 36.3418 19.0758 37.8558 20.4403 39.0114C22.4166 40.6861 24.3218 42.4638 26.3277 44.0947C27.4059 44.9734 28.5602 45.7418 29.9823 45.9198C31.4044 46.0978 32.7985 46.5288 34.0735 47.3259C34.3408 47.4862 34.6339 47.5862 34.9361 47.6202C36.735 47.836 38.4003 47.3403 39.9799 46.4035C40.4753 46.1098 40.9853 45.8431 41.498 45.5878C42.7325 44.9728 44.1013 44.5688 45.1768 43.7123C46.373 42.7575 47.6523 42.3337 49.0254 42.067C49.6184 41.9513 50.1036 41.6792 50.4896 41.1883C50.9505 40.6057 51.3769 39.9896 51.8573 39.4268C52.3538 38.846 52.7123 38.228 52.7991 37.4003C52.9322 36.1314 53.4201 35.0112 54.039 33.9347C55.087 32.1162 55.6827 30.1065 55.9927 27.9697C56.0741 27.4093 56.1205 26.9352 55.8709 26.4419C55.1496 25.0183 55.4439 23.4018 55.2159 21.8866C55.1005 21.0673 55.3663 20.1712 55.4779 19.1498L55.4752 19.1516ZM46.793 4.93023C46.4884 4.55562 46.3919 4.386 46.2539 4.28111C46.0048 4.08931 45.7331 3.93287 45.4684 3.76685C43.2042 2.34752 40.7244 1.65764 38.1906 1.16195C37.6817 1.06186 37.1464 1.10681 36.6272 1.12899C36.4919 1.13438 36.3307 1.28063 36.245 1.41249C36.2056 1.47243 36.2941 1.68221 36.369 1.78231C36.9326 2.52972 37.6677 3.09351 38.4963 3.41381C39.9267 3.98674 41.4304 4.30101 42.9503 4.34465C43.594 4.36443 44.236 4.49988 44.877 4.59698C45.4237 4.68329 45.9698 4.78698 46.793 4.93023ZM27.5564 45.8341C26.0366 44.4519 24.7045 43.2166 23.3487 42.0143C22.2263 41.0193 21.0796 40.0579 19.9324 39.0983C19.8036 38.9904 19.6003 38.9934 19.3184 38.9125C20.7006 41.4946 25.3164 45.4175 27.5564 45.8341ZM17.3173 13.581C18.2337 12.8018 19.0817 11.9819 20.0128 11.3034C21.3179 10.357 21.8171 9.18042 21.5088 7.16052C20.5826 8.00324 19.9222 9.01859 19.2079 9.94103C18.4531 10.9138 17.8936 12.0724 17.2644 13.1615C17.2159 13.2496 17.2946 13.4234 17.3173 13.581ZM48.2264 43.0494C47.3714 42.9841 46.5105 43.1519 45.9741 43.6656C44.9563 44.6395 43.7455 45.1292 42.5136 45.6165C41.8667 45.8719 41.257 46.2471 40.6478 46.6049C40.5637 46.654 40.5481 46.9172 40.5653 47.0724C40.5713 47.1246 40.7993 47.2103 40.8931 47.1749C41.9993 46.7553 43.1422 46.4173 44.1897 45.8563C45.4744 45.1706 46.6803 44.3021 47.9095 43.4965C48.0383 43.4162 48.1062 43.2262 48.2264 43.0494ZM15.563 29.543C15.3172 30.3492 15.3657 30.7957 15.5204 31.271C15.949 32.5897 16.2094 33.9814 16.9819 35.1334C17.2682 35.5608 17.327 36.5162 17.8553 36.31C18.3205 36.1302 17.776 35.3738 17.7442 34.8637C17.6224 32.9151 16.7016 31.3448 15.563 29.543ZM23.856 5.27728L23.9708 5.46967C24.6096 5.20595 25.2544 4.95661 25.8868 4.6743C27.2611 4.06094 28.6311 3.43619 29.9969 2.80005C30.2723 2.67059 30.5246 2.4632 30.7597 2.25342C30.8254 2.19348 30.8136 1.99209 30.7931 1.86742C30.7823 1.81168 30.6524 1.75114 30.5775 1.74755C30.4493 1.75066 30.3223 1.77407 30.2001 1.81707C28.3434 2.40386 26.5924 3.27236 24.9169 4.32666C24.525 4.5736 24.2069 4.95721 23.856 5.27728ZM56.4633 26.2045C56.5755 26.0595 56.6633 25.9989 56.6693 25.9306C56.8504 23.8076 56.6482 21.7038 56.3868 19.6054C56.3738 19.4999 56.2423 19.3488 56.1528 19.3363C56.0542 19.3219 55.9005 19.413 55.8407 19.5113C55.7423 19.6669 55.6811 19.8478 55.6628 20.0369C55.5643 21.7676 55.6668 23.5051 55.9679 25.2065C56.0272 25.55 56.2827 25.8521 56.4633 26.2045ZM15.1145 20.3462C15.8391 20.0387 15.9474 19.4819 16.025 18.9796C16.2143 17.7539 16.6876 16.5743 16.5313 15.2785C15.7738 16.8249 15.1021 18.3916 15.115 20.3462H15.1145ZM32.6503 47.2534C31.026 46.4539 30.5855 46.3699 29.1397 46.5941C29.7526 46.8524 30.3041 47.263 30.8589 47.2696C31.4373 47.2792 32.0638 48.0674 32.6508 47.2534H32.6503Z" fill="#2E2520"/>
<path d="M35.9997 31.3538C34.8892 31.3316 34.1263 30.8143 33.5614 29.8152C33.0352 28.8831 32.1597 28.3994 31.3581 27.8252C30.3473 27.1018 29.5251 26.2854 29.2917 24.8187C29.13 23.8244 29.3181 22.9607 29.6809 22.1755C29.9855 21.5192 30.5289 20.9096 31.0998 20.5194C31.7187 20.0963 32.2319 19.6971 32.5177 18.9155C32.8411 18.0164 33.6562 17.9619 34.3781 17.8C35.0579 17.6478 35.749 17.5501 36.4191 17.3595C37.3356 17.0994 38.1674 17.1797 38.837 17.9739C39.3545 18.59 39.9588 19.0318 40.6327 19.4058C41.3335 19.7942 41.5648 20.2479 41.3454 21.0595C41.1961 21.6103 41.3405 21.9855 41.5249 22.4254C41.7265 22.9049 41.9341 23.3922 42.0726 23.8987C42.5341 25.5842 42.0031 27.0029 40.582 27.7533C39.7011 28.2184 39.0267 28.8382 38.8073 29.9284C38.7195 30.3678 38.4731 30.6171 38.1248 30.731C37.4218 30.96 36.7086 31.1488 35.9997 31.3538ZM40.6618 24.2877C40.6845 21.3184 38.6618 18.9443 36.0315 18.9407C33.6713 18.9407 31.2971 20.7178 31.205 24.1235C31.1311 26.8494 33.1716 29.3884 35.8315 29.398C39.0709 29.416 40.5987 26.913 40.6618 24.2877ZM31.1791 27.1263C31.1791 26.7457 31.212 26.5509 31.1742 26.3753C30.8254 24.7624 30.5985 23.1651 31.3899 21.6115C31.447 21.5 31.3155 21.2698 31.2713 21.0948C31.116 21.1506 30.9284 21.162 30.8109 21.2692C29.5036 22.4632 28.9203 25.33 31.1791 27.1263ZM36.0342 18.1956C36.5814 18.4186 36.8935 18.5768 37.2202 18.6751C38.4251 19.03 39.4532 19.6677 40.1685 20.8437C40.3098 21.075 40.492 21.4191 40.7616 21.1554C40.905 21.0145 40.9519 20.5842 40.8694 20.369C40.7578 20.0831 40.5044 19.7264 40.2607 19.6701C39.5987 19.5161 39.2364 18.9826 38.8052 18.5175C38.0795 17.7425 37.2693 17.4992 36.0342 18.1956ZM35.9598 29.8835L35.9436 29.7714C35.5965 29.7714 35.246 29.7384 34.9043 29.7852C34.7285 29.8092 34.5689 29.9752 34.4024 30.0771C34.5538 30.2263 34.6859 30.4613 34.8606 30.5098C35.7943 30.7718 36.7356 30.8281 37.6563 30.4271C37.8138 30.3582 37.989 30.2683 38.0876 30.1274C38.175 30.0075 38.2035 29.7948 38.1857 29.6335C38.1787 29.5736 37.9609 29.4831 37.8531 29.5023C37.2208 29.6126 36.5911 29.7516 35.9625 29.8817L35.9598 29.8835ZM40.7351 26.838C41.3821 26.7044 41.671 26.2986 41.7088 25.6747C41.7367 25.1488 41.7299 24.6213 41.6883 24.0965C41.678 23.958 41.5044 23.8346 41.4058 23.7039C41.2618 23.8556 40.9696 24.0593 40.9961 24.1504C41.2586 25.0609 40.7098 25.8761 40.7351 26.8363V26.838Z" fill="#2E2520"/>
<path d="M46.6528 30.9492C46.6156 30.9702 46.4658 31.1098 46.3035 31.129C46.1558 31.1482 45.9401 31.093 45.8485 30.9779C45.3886 30.4007 44.9423 29.8074 44.5309 29.187C44.4231 29.0246 44.3789 28.5876 44.4404 28.5499C44.6425 28.4258 45.0377 28.2963 45.1256 28.4036C45.6458 29.042 46.1035 29.7438 46.5736 30.4319C46.6194 30.5008 46.6054 30.6189 46.6528 30.9492Z" fill="#2E2520"/>
<path d="M24.629 35.9486C24.8695 35.9702 25.3444 35.9863 25.8075 36.0744C25.9229 36.0966 26.0771 36.3478 26.0771 36.4976C26.0771 36.6474 25.9439 36.9064 25.8285 36.9381C24.9282 37.1869 24.0323 37.248 23.2355 36.5785C23.1905 36.5319 23.1557 36.4744 23.1337 36.4105C23.1117 36.3467 23.1032 36.278 23.1088 36.2099C23.126 36.1098 23.2657 35.9702 23.3595 35.963C23.705 35.9306 24.0517 35.9486 24.629 35.9486Z" fill="#2E2520"/>
<path d="M52.8411 14.8709L53.1818 15.0783C53.0853 15.2707 53.026 15.58 52.8853 15.6357C52.2371 15.9008 51.5719 16.1119 50.8955 16.2674C50.7009 16.31 50.4184 16.0972 50.2389 15.9216C50.0319 15.7184 50.1553 15.2773 50.4163 15.2329C51.1834 15.1017 51.9559 15.001 52.8411 14.8709Z" fill="#2E2520"/>
<path d="M29.9246 40.2401C30.2847 40.4271 30.5861 40.4799 30.7333 40.6795C31.1363 41.2357 31.5049 41.8216 31.8368 42.4332C31.9985 42.7245 31.8508 43.0398 31.5786 43.1237C31.4292 43.1699 31.1586 43.0344 31.0486 42.884C30.6092 42.2954 30.2019 41.6779 29.8292 41.0349C29.7429 40.882 29.8766 40.5752 29.9246 40.2401Z" fill="#2E2520"/>
<path d="M44.0544 17.046C44.077 16.8758 44.0544 16.681 44.1261 16.6061C44.2231 16.5078 44.4312 16.4263 44.5309 16.4796C44.6673 16.5521 44.7557 16.7511 44.8495 16.9076C45.1105 17.3427 45.3687 17.7803 45.6172 18.2262C45.7283 18.4258 45.8776 18.6386 45.8868 18.8538C45.8975 19.0527 45.7886 19.3111 45.6539 19.4477C45.5789 19.5245 45.27 19.4747 45.194 19.3686C44.6959 18.6643 44.0986 18.005 44.0544 17.046Z" fill="#2E2520"/>
<path d="M45.6043 9.56342C45.4965 10.2827 45.4533 10.8119 45.3277 11.319C45.249 11.5929 45.0989 11.8347 44.8964 12.0137C44.7536 12.1419 44.5045 12.1234 44.3034 12.1701C44.2873 11.9609 44.2285 11.7428 44.2625 11.5444C44.3676 10.9318 44.5083 10.3264 44.6344 9.71866C44.6441 9.67131 44.6414 9.62096 44.6538 9.5748C44.753 9.20799 44.9676 8.92868 45.311 9.08032C45.4841 9.15704 45.5649 9.49329 45.6043 9.56342Z" fill="#2E2520"/>
<path d="M36.3091 14.241C36.6121 14.2829 37.004 14.3057 37.3782 14.4064C37.5059 14.4405 37.6946 14.6965 37.6725 14.8068C37.6337 15.004 37.486 15.2635 37.3302 15.3222C37.0833 15.408 36.8189 15.4094 36.5711 15.3264C36.1399 15.1736 35.7382 15.1226 35.308 15.3228C35.0256 15.4547 34.7603 15.3162 34.6848 15.0034C34.584 14.5838 34.8676 14.3806 35.1862 14.3213C35.5258 14.2583 35.8768 14.2685 36.3091 14.241Z" fill="#2E2520"/>
<path d="M43.0333 34.9051C42.9109 35.5002 42.8177 36.0223 42.6856 36.5324C42.6597 36.6325 42.47 36.7673 42.3902 36.7445C42.2468 36.7056 42.0452 36.5797 42.016 36.4491C41.9515 36.1669 41.9442 35.8723 41.9945 35.5866C42.0958 35.0639 42.1956 34.5676 42.0053 34.0336C41.9147 33.7776 41.9406 33.3695 42.2899 33.3707C42.478 33.3707 42.7487 33.6296 42.8333 33.8436C42.9708 34.1858 42.9799 34.5886 43.0333 34.9051Z" fill="#2E2520"/>
<path d="M37.7286 34.7522C37.6585 34.8919 37.6245 35.0567 37.5324 35.1274C36.9647 35.5626 36.3959 35.9995 35.7986 36.3801C35.6461 36.4772 35.3781 36.4173 35.1835 36.3532C34.8983 36.2591 34.839 35.8419 35.0757 35.6729C35.7291 35.2071 36.3862 34.745 37.0596 34.3159C37.1674 34.2469 37.383 34.3213 37.5221 34.398C37.6165 34.4507 37.6569 34.621 37.7286 34.7522Z" fill="#2E2520"/>
<path d="M30.4961 6.7919C30.5882 6.85184 30.7618 6.90458 30.785 6.99928C31.0104 7.92292 31.2276 8.84956 31.4066 9.78458C31.4562 10.0441 31.1473 10.1886 30.9403 10.0333C30.2885 9.54543 29.8826 7.73831 30.2626 6.9825C30.302 6.90758 30.3979 6.86982 30.4961 6.7919Z" fill="#2E2520"/>
<path d="M38.5502 9.41537C38.3539 9.26972 38.1421 9.1954 38.1135 9.06953C38.0828 8.93287 38.1841 8.69972 38.2941 8.59003C38.7724 8.11467 39.2726 7.66733 39.7928 7.24982C39.968 7.11257 40.3319 7.01547 40.4667 7.12276C40.7847 7.3715 40.6176 7.72213 40.396 7.97866C40.0985 8.3245 39.803 8.68893 39.4602 8.96824C39.1971 9.17862 38.8596 9.26912 38.5502 9.41537Z" fill="#2E2520"/>
<path d="M26.1569 14.2955L25.6803 14.7966C25.5444 14.6329 25.3428 14.4969 25.2857 14.3015C25.0571 13.5367 24.8657 12.7581 24.684 11.9777C24.6592 11.8704 24.7379 11.651 24.8188 11.6139C24.9509 11.5539 25.1681 11.53 25.2684 11.6139C25.4663 11.7763 25.6922 11.9939 25.7568 12.2378C25.9267 12.8732 26.0161 13.5373 26.1569 14.2955Z" fill="#2E2520"/>
<path d="M20.9395 27.1156C20.5023 28.0068 20.1702 28.9197 19.3561 29.4058C19.2192 29.4873 18.9162 29.383 18.7696 29.2529C18.5205 29.033 18.7696 28.8502 18.8909 28.6626C19.2731 28.0776 19.6262 27.4674 20.0322 26.9046C20.1367 26.7601 20.4025 26.6888 20.5831 26.7086C20.706 26.7212 20.8063 26.9537 20.9395 27.1156Z" fill="#2E2520"/>
<path d="M25.8781 27.1911C26.1062 27.3379 26.2717 27.3817 26.3024 27.4782C26.3531 27.6364 26.3795 27.8852 26.3024 27.9948C26.1773 28.1699 25.9633 28.2706 25.7789 28.388C25.3008 28.6931 24.8291 29.015 24.332 29.2751C24.1805 29.3542 23.9061 29.3303 23.7713 29.2236C23.4937 29.0036 23.5913 28.6512 23.8145 28.4959C24.497 28.0206 25.2145 27.6047 25.8781 27.1911Z" fill="#2E2520"/>
<path d="M50.5947 23.1549C50.419 23.5954 50.1721 24.2601 49.8793 24.8991C49.834 24.998 49.5505 25.0519 49.4303 24.9926C49.3187 24.9368 49.1968 24.6869 49.2195 24.5514C49.337 23.8412 49.4669 23.1285 49.6648 22.4428C49.7251 22.2336 49.9979 22.0436 50.2076 21.9735C50.2853 21.9477 50.4885 22.2732 50.585 22.4722C50.64 22.5843 50.5947 22.7569 50.5947 23.1549Z" fill="#2E2520"/>
<path d="M20.8025 17.8588C21.5761 18.6308 21.4839 19.6791 21.5697 20.6471C21.5858 20.8269 21.3848 21.084 21.2241 21.2141C21.14 21.2824 20.7982 21.1727 20.7901 21.1098C20.6683 20.1322 20.5745 19.1492 20.4996 18.1651C20.4936 18.0812 20.6753 17.9787 20.8025 17.8588Z" fill="#2E2520"/>
<path d="M38.8801 41.7637C39.0098 41.8019 39.1374 41.8483 39.2623 41.9028C39.727 42.1425 40.1944 42.3757 40.6478 42.6394C40.8634 42.7641 41.0791 42.9199 41.2343 43.1189C41.4128 43.3497 41.209 43.7926 40.9594 43.7321C40.1163 43.5295 39.2925 43.2466 38.6618 42.5453C38.5685 42.4416 38.5707 42.1821 38.6009 42.0101C38.6186 41.913 38.7815 41.8458 38.8801 41.7637Z" fill="#2E2520"/>
<path d="M28.6194 18.1411C28.6642 18.2963 28.8173 18.5373 28.7634 18.6883C28.4804 19.4885 28.1526 20.2701 27.8189 21.0463C27.7779 21.1416 27.6033 21.2261 27.4997 21.2105C27.4092 21.1979 27.2841 21.0565 27.2604 20.9492C27.0836 20.0843 27.641 18.5361 28.2626 18.1465C28.3267 18.1063 28.4291 18.1411 28.6194 18.1411Z" fill="#2E2520"/>
<path d="M52.7285 31.2728C52.6314 31.2045 52.4293 31.1212 52.3241 30.96C52.2821 30.8958 52.4179 30.6033 52.5349 30.5098C53.0535 30.0903 53.5829 29.6893 54.135 29.3309C54.2838 29.2344 54.5932 29.2272 54.7026 29.3357C54.8034 29.4363 54.8185 29.8152 54.7274 29.9542C54.2649 30.6711 53.6816 31.2177 52.7285 31.2728Z" fill="#2E2520"/>
<path d="M49.5251 37.4452C49.1251 37.3991 48.951 37.3943 48.7844 37.3529C48.7138 37.3355 48.6087 37.2426 48.6076 37.1821C48.6001 37.0457 48.632 36.9103 48.6987 36.7955C48.7845 36.6871 48.8969 36.609 49.0222 36.5707C49.6389 36.3645 50.2562 36.1578 50.882 35.9905C51.0179 35.9546 51.3042 36.0541 51.3219 36.1404C51.3629 36.3454 51.3139 36.5929 51.2416 36.7997C51.2034 36.9088 51.0508 36.9999 50.9338 37.0394C50.3979 37.2031 49.8599 37.3493 49.5251 37.4452Z" fill="#2E2520"/>
<path d="M30.9548 32.4914C30.9106 32.7006 30.8389 33.1639 30.7004 33.6008C30.6659 33.7093 30.3963 33.8136 30.2723 33.774C30.1483 33.7345 30.0028 33.5073 30.0065 33.3653C30.0195 32.5567 30.0556 31.7469 30.1295 30.942C30.1451 30.7664 30.3451 30.6117 30.4605 30.4475C30.5985 30.6099 30.8222 30.7532 30.8572 30.9396C30.9354 31.3568 30.9187 31.7955 30.9548 32.4914Z" fill="#2E2520"/>
<path d="M59.8562 7.19099C59.8562 5.47812 60.2287 4.17934 60.9736 3.29467C61.727 2.40059 62.692 1.95354 63.8686 1.95354C65.0452 1.95354 65.9806 2.33941 66.6747 3.11115C67.3773 3.88288 67.7286 5.11578 67.7286 6.80983C67.7286 8.50389 67.3561 9.78384 66.6112 10.6497C65.8663 11.5155 64.8717 11.9485 63.6273 11.9485C62.5523 11.9485 61.6719 11.6049 60.9863 10.9179C60.6308 10.5603 60.3514 10.0662 60.1483 9.43562C59.9536 8.79564 59.8562 8.04743 59.8562 7.19099ZM63.8305 2.09471C62.9755 2.09471 62.273 2.51823 61.7227 3.36525C61.181 4.21228 60.9101 5.45459 60.9101 7.09218C60.9101 8.72976 61.1683 9.92501 61.6846 10.6779C62.201 11.4308 62.8867 11.8073 63.7416 11.8073C64.605 11.8073 65.3076 11.3838 65.8494 10.5368C66.3996 9.68031 66.6747 8.44271 66.6747 6.82395C66.6747 5.19578 66.4123 4.00053 65.8875 3.2382C65.3711 2.47588 64.6855 2.09471 63.8305 2.09471Z" fill="#2E2520"/>
<path d="M69.9247 11.892H68.8709V2.01001H69.9247V6.55572H74.0514V2.01001H75.1053V11.892H74.0514V6.6969H69.9247V11.892Z" fill="#2E2520"/>
<path d="M80.5226 11.892H80.3575L81.4622 2.01001H81.8812L84.5477 11.1438L87.2014 2.01001H87.6204L88.7251 11.892H87.6712L86.7951 3.98641L84.4969 11.892H83.6969L81.3733 4.08523L80.5226 11.892Z" fill="#2E2520"/>
<path d="M95.7588 2.01001C95.9196 2.18883 96 2.41941 96 2.70175C96 2.93704 95.9534 3.17703 95.8603 3.42172L93.5875 8.54624V11.892H92.5336V8.85682L89.9941 2.01001H91.0734L93.4986 8.37683L95.708 3.42172C95.8011 3.18644 95.8476 2.94174 95.8476 2.68763C95.8476 2.43353 95.7841 2.23589 95.6572 2.09471L95.7588 2.01001Z" fill="#2E2520"/>
<path d="M1.79002 14.4885C2.44636 14.4553 3.08779 14.4387 3.71429 14.4387C4.35572 14.4387 5.02698 14.5134 5.72807 14.6626C6.44408 14.8119 7.14517 15.0938 7.83134 15.5085C8.53243 15.9065 9.12165 16.4289 9.59899 17.0757C10.0912 17.7059 10.4865 18.5435 10.7849 19.5883C11.0832 20.6331 11.2324 21.9019 11.2324 23.3945C11.2324 24.8871 11.0086 26.2305 10.5611 27.4246C10.1285 28.6021 9.53186 29.506 8.7711 30.1362C7.29434 31.3635 5.51177 31.9771 3.42342 31.9771C2.69249 31.9771 1.92427 31.944 1.11876 31.8776H0V14.4885H1.79002ZM1.85715 31.6786C2.1704 31.7118 2.5657 31.7283 3.04304 31.7283C3.52038 31.7283 3.87838 31.7201 4.11705 31.7035C4.35572 31.6869 4.68389 31.6205 5.10156 31.5045C5.51923 31.3718 5.90707 31.1976 6.26507 30.982C6.62308 30.7664 6.996 30.4513 7.38384 30.0367C7.78659 29.6055 8.12968 29.0997 8.4131 28.5192C9.05452 27.1593 9.37524 25.3847 9.37524 23.1955C9.37524 21.6365 9.20369 20.2932 8.86061 19.1654C8.51752 18.0211 8.12222 17.1752 7.67472 16.6279C7.24213 16.0806 6.71258 15.6494 6.08607 15.3343C5.45957 15.0026 4.95985 14.8119 4.58693 14.7621C4.21401 14.7124 3.78142 14.6875 3.28916 14.6875C2.79691 14.6875 2.31957 14.7124 1.85715 14.7621V31.6786Z" fill="#2E2520"/>
<path d="M60.2194 31.8776H59.9286V14.4636H60.6893L69.9974 30.5591V14.4636H70.2883V31.8776H68.6549L60.2194 17.4489V31.8776Z" fill="#2E2520"/>
<path d="M84.0664 14.4636H84.3573V24.4145C84.3573 27.0183 83.8949 28.9338 82.97 30.1611C82.0452 31.3718 80.8369 31.9771 79.3452 31.9771C78.4055 31.9771 77.6074 31.8859 76.9511 31.7035C76.2947 31.5045 75.6757 31.1479 75.0939 30.6338C73.9006 29.6055 73.3039 27.5324 73.3039 24.4145V14.4636H75.161V24.3896C75.161 27.408 75.5713 29.4231 76.3917 30.4347C76.8093 30.9323 77.2419 31.2723 77.6894 31.4547C78.1519 31.6371 78.7038 31.7283 79.3452 31.7283C80.7772 31.7283 81.9184 31.1479 82.7686 29.9869C83.6338 28.8094 84.0664 26.9436 84.0664 24.3896V14.4636Z" fill="#2E2520"/>
<path d="M91.9904 31.8776H90.1332V14.7124H86.2623V14.4636H95.8837V14.7124H91.9904V31.8776Z" fill="#2E2520"/>
</svg>
