<svg aria-hidden="true" version="1.1" xmlns="http://www.w3.org/2000/svg" xmlns:xlink="http://www.w3.org/1999/xlink">
  <defs>
    <symbol id="logo" viewBox="0 0 63 32">
        <path d="M37.207 15.991c0 0.255-0.007 0.509 0 0.764 0.078 2.588-0.648 4.92-1.814 7.119-0.307 0.55-0.675 1.291-1.016 2.048l-0.085 0.21c-0.278 0.633-0.663 1.078-1.264 1.337-0.336 0.144-0.647 0.394-0.927 0.653-1.293 1.189-2.761 2.040-4.33 2.64-1.043 0.398-2.116 0.748-3.249 0.733-0.338-0.005-0.676 0.111-1.014 0.112s-0.677-0.121-1.012-0.105c-1.46 0.070-2.813-0.431-4.156-0.955-1.466-0.572-2.761-1.476-3.978-2.554-1.719-1.52-2.943-3.434-3.843-5.626-0.485-1.181-0.88-2.401-0.992-3.711-0.018-0.217-0.083-0.433-0.14-0.644-0.409-1.471-0.174-2.913 0.079-4.378 0.193-1.121 0.392-2.227 0.769-3.291 0.995-2.814 2.575-5.118 4.763-6.928 1.825-1.507 3.866-2.434 6.087-2.832 2.547-0.457 5.034-0.128 7.447 0.939 1.204 0.534 2.34 1.211 3.332 2.107 0.926 0.836 1.761 1.814 2.55 2.813 0.714 0.906 1.221 1.985 1.675 3.085 0.707 1.72 1.169 3.5 1.122 5.412-0.010 0.353-0.003 0.703-0.003 1.053zM36.229 12.507c-0.071-0.601-0.114-1.298-0.246-1.973-0.376-1.944-1.388-3.462-2.736-4.701-0.765-0.705-1.6-1.317-2.422-1.94-0.278-0.211-0.602-0.405-0.927-0.47-0.836-0.171-1.682-0.332-2.529-0.379-1.471-0.084-2.792-0.506-3.903-1.644-0.817-0.837-1.707-0.918-2.557-0.181-0.963 0.835-2.059 1.324-3.176 1.809-0.819 0.356-1.607 0.803-2.394 1.246-0.658 0.37-1.041 0.948-1.032 1.822 0.005 0.49-0.197 0.901-0.605 1.172-0.34 0.228-0.667 0.479-0.98 0.754-0.87 0.762-1.548 1.621-1.695 2.954-0.116 1.054-0.402 2.096-1.051 2.965-0.211 0.292-0.351 0.648-0.387 1.034l-0.001 0.008c-0.059 0.788-0.035 1.585-0.018 2.378 0.005 0.212 0.088 0.439 0.185 0.627 0.224 0.441 0.468 0.869 0.731 1.283 0.637 0.986 1.191 1.996 1.319 3.249 0.124 1.213 0.651 2.202 1.542 2.956 1.291 1.094 2.535 2.255 3.845 3.32 0.704 0.573 1.458 1.076 2.386 1.192s1.839 0.398 2.672 0.918c0.174 0.105 0.366 0.17 0.563 0.192 1.175 0.141 2.262-0.183 3.294-0.794 0.323-0.192 0.656-0.366 0.991-0.533 0.807-0.402 1.7-0.666 2.403-1.225 0.781-0.624 1.616-0.9 2.513-1.074 0.387-0.076 0.705-0.253 0.957-0.574 0.3-0.38 0.579-0.782 0.893-1.15 0.325-0.379 0.558-0.783 0.615-1.324 0.087-0.829 0.406-1.56 0.81-2.263 0.684-1.188 1.074-2.501 1.276-3.895 0.053-0.366 0.083-0.676-0.080-0.998-0.471-0.93-0.279-1.985-0.428-2.975-0.076-0.536 0.098-1.121 0.171-1.787l-0.002 0.001zM30.559 3.22c-0.199-0.244-0.262-0.355-0.353-0.424-0.162-0.125-0.34-0.227-0.513-0.336-1.479-0.927-3.098-1.378-4.752-1.701-0.333-0.065-0.682-0.036-1.021-0.022-0.088 0.003-0.193 0.099-0.249 0.185-0.026 0.039 0.033 0.176 0.081 0.242 0.353 0.472 0.823 0.838 1.368 1.058l0.021 0.008c0.934 0.374 1.916 0.579 2.909 0.607 0.421 0.013 0.84 0.102 1.258 0.165 0.357 0.056 0.714 0.124 1.251 0.217zM17.996 29.932c-0.993-0.903-1.863-1.709-2.747-2.495-0.606-0.536-1.332-1.159-2.067-1.771l-0.164-0.133c-0.084-0.071-0.217-0.069-0.401-0.121 0.903 1.686 3.917 4.248 5.38 4.52zM11.309 8.869c0.599-0.509 1.153-1.045 1.761-1.488 0.852-0.618 1.178-1.386 0.977-2.705-0.605 0.55-1.036 1.213-1.503 1.816-0.493 0.635-0.858 1.392-1.27 2.103-0.031 0.058 0.020 0.171 0.035 0.274zM31.495 28.114c-0.559-0.042-1.121 0.067-1.471 0.403-0.665 0.636-1.455 0.955-2.26 1.273-0.423 0.167-0.821 0.412-1.219 0.646-0.055 0.032-0.065 0.204-0.054 0.305 0.004 0.035 0.153 0.090 0.214 0.067 0.722-0.274 1.469-0.495 2.153-0.861 0.839-0.447 1.626-1.015 2.429-1.541 0.084-0.052 0.128-0.176 0.206-0.292zM10.163 19.293c-0.161 0.526-0.129 0.818-0.028 1.128 0.28 0.861 0.451 1.77 0.955 2.522 0.187 0.279 0.225 0.903 0.57 0.769 0.304-0.118-0.052-0.611-0.072-0.944-0.080-1.273-0.681-2.299-1.425-3.475zM15.579 3.446l0.075 0.126c0.417-0.172 0.838-0.335 1.251-0.52 2.034-0.871 2.916-1.281 3.795-1.698l-1.111 0.474c0.18-0.085 0.345-0.22 0.498-0.357 0.042-0.039 0.035-0.17 0.022-0.252-0.007-0.036-0.091-0.076-0.14-0.078-0.089 0.002-0.174 0.019-0.252 0.047l0.006-0.002c-1.213 0.383-2.356 0.95-3.45 1.639-0.256 0.161-0.464 0.411-0.693 0.62zM36.873 17.113c0.073-0.095 0.131-0.134 0.135-0.178 0.118-1.386-0.013-2.761-0.184-4.131-0.008-0.069-0.095-0.167-0.153-0.176-0.065-0.009-0.165 0.050-0.204 0.114-0.065 0.102-0.105 0.22-0.116 0.344-0.065 1.13 0.003 2.265 0.199 3.376 0.039 0.224 0.206 0.421 0.323 0.651zM9.87 13.287c0.473-0.2 0.544-0.564 0.595-0.892 0.124-0.801 0.433-1.571 0.33-2.418-0.494 1.010-0.933 2.034-0.925 3.31zM21.322 30.859c-1.061-0.522-1.348-0.577-2.292-0.43 0.4 0.169 0.76 0.437 1.123 0.441 0.377 0.007 0.787 0.52 1.17-0.011z"></path>
        <path d="M23.51 20.476c-0.725-0.014-1.224-0.353-1.593-1.005-0.343-0.609-0.915-0.925-1.439-1.3-0.66-0.472-1.197-1.006-1.349-1.963-0.106-0.65 0.017-1.213 0.254-1.726 0.217-0.442 0.532-0.806 0.918-1.076l0.009-0.006c0.404-0.276 0.739-0.537 0.926-1.047 0.211-0.588 0.743-0.623 1.215-0.729 0.444-0.099 0.895-0.163 1.333-0.287 0.599-0.17 1.142-0.118 1.579 0.401 0.338 0.402 0.733 0.691 1.173 0.935 0.457 0.253 0.609 0.55 0.465 1.080-0.097 0.359-0.003 0.604 0.118 0.891 0.132 0.313 0.268 0.631 0.358 0.963 0.301 1.1-0.046 2.027-0.974 2.517-0.575 0.304-1.015 0.709-1.159 1.42-0.057 0.287-0.218 0.451-0.445 0.524-0.459 0.15-0.925 0.273-1.388 0.407zM26.555 15.862c0.015-1.94-1.306-3.49-3.024-3.492-1.541 0-3.092 1.161-3.152 3.385-0.048 1.78 1.285 3.438 3.022 3.444 2.115 0.012 3.113-1.623 3.154-3.337zM20.362 17.715c0-0.248 0.022-0.375-0.003-0.49-0.228-1.054-0.375-2.096 0.141-3.112 0.037-0.072-0.049-0.223-0.078-0.337-0.101 0.037-0.224 0.044-0.3 0.114-0.854 0.78-1.234 2.652 0.24 3.825zM23.532 11.883c0.357 0.146 0.562 0.248 0.775 0.313 0.787 0.231 1.458 0.648 1.926 1.416 0.091 0.151 0.211 0.376 0.387 0.203 0.093-0.091 0.124-0.372 0.070-0.513-0.073-0.187-0.238-0.42-0.397-0.457-0.432-0.101-0.669-0.449-0.951-0.753-0.473-0.505-1.003-0.665-1.809-0.21zM23.484 19.516l-0.010-0.074c-0.227 0-0.456-0.022-0.679 0.009-0.115 0.016-0.219 0.124-0.328 0.191 0.099 0.098 0.185 0.251 0.3 0.283 0.609 0.171 1.224 0.208 1.825-0.054 0.103-0.045 0.217-0.104 0.282-0.196 0.057-0.078 0.075-0.217 0.064-0.322-0.005-0.039-0.147-0.098-0.217-0.086-0.413 0.072-0.824 0.163-1.234 0.248l-0.002 0.001zM26.602 17.527c0.423-0.087 0.611-0.353 0.636-0.759 0.007-0.125 0.011-0.27 0.011-0.417 0-0.216-0.009-0.43-0.026-0.642l0.002 0.028c-0.007-0.090-0.121-0.17-0.185-0.256-0.094 0.099-0.285 0.232-0.268 0.291 0.172 0.594-0.187 1.127-0.17 1.754v0.001zM30.467 20.212c-0.024 0.013-0.122 0.105-0.229 0.117-0.096 0.013-0.237-0.023-0.296-0.099-0.3-0.377-0.592-0.764-0.861-1.17-0.071-0.106-0.099-0.392-0.059-0.416 0.131-0.081 0.39-0.166 0.447-0.095 0.34 0.417 0.638 0.875 0.946 1.324 0.029 0.045 0.020 0.122 0.052 0.338zM16.084 23.477c0.157 0.014 0.467 0.024 0.769 0.082 0.076 0.015 0.176 0.179 0.176 0.277s-0.087 0.266-0.163 0.287c-0.588 0.163-1.173 0.202-1.693-0.235-0.029-0.030-0.051-0.067-0.065-0.108l-0.001-0.002c-0.011-0.031-0.017-0.067-0.017-0.104 0-0.009 0-0.018 0.001-0.027l-0 0.001c0.011-0.065 0.103-0.157 0.163-0.161 0.226-0.021 0.453-0.009 0.829-0.009zM34.508 9.711l0.222 0.136c-0.063 0.126-0.101 0.328-0.193 0.364-0.423 0.173-0.857 0.311-1.3 0.412-0.127 0.028-0.312-0.111-0.428-0.225-0.135-0.133-0.055-0.421 0.116-0.451 0.501-0.085 1.006-0.151 1.584-0.236zM19.543 26.279c0.235 0.122 0.432 0.157 0.528 0.287 0.263 0.363 0.504 0.746 0.721 1.145 0.028 0.045 0.045 0.1 0.045 0.159 0 0.136-0.089 0.251-0.211 0.291l-0.002 0.001c-0.098 0.031-0.274-0.058-0.346-0.156-0.261-0.346-0.524-0.74-0.765-1.15l-0.032-0.059c-0.056-0.099 0.031-0.3 0.063-0.519zM28.77 11.132c0.015-0.111 0-0.238 0.047-0.287 0.063-0.064 0.199-0.118 0.265-0.082 0.089 0.047 0.147 0.177 0.208 0.28 0.17 0.284 0.339 0.569 0.501 0.861 0.073 0.131 0.17 0.27 0.176 0.41-0.001 0.15-0.059 0.286-0.153 0.388l0-0c-0.049 0.050-0.251 0.018-0.3-0.052-0.325-0.46-0.715-0.89-0.744-1.516zM29.782 6.245c-0.071 0.47-0.098 0.816-0.18 1.147-0.052 0.181-0.15 0.335-0.281 0.453l-0.001 0.001c-0.093 0.084-0.256 0.072-0.387 0.102-0.010-0.137-0.049-0.279-0.026-0.409 0.069-0.4 0.16-0.795 0.242-1.192 0.007-0.031 0.005-0.064 0.013-0.094 0.065-0.24 0.205-0.422 0.429-0.323 0.113 0.050 0.166 0.27 0.191 0.315zM23.713 9.3c0.197 0.027 0.453 0.042 0.697 0.108 0.084 0.022 0.207 0.189 0.192 0.261-0.025 0.129-0.121 0.299-0.223 0.337-0.075 0.027-0.162 0.043-0.252 0.043-0.087 0-0.171-0.015-0.249-0.042l0.005 0.002c-0.281-0.099-0.544-0.133-0.825-0.002-0.184 0.086-0.358-0.005-0.407-0.209-0.066-0.274 0.119-0.406 0.327-0.445 0.222-0.041 0.451-0.035 0.733-0.052zM28.103 22.795c-0.080 0.389-0.14 0.729-0.227 1.063-0.017 0.065-0.141 0.153-0.193 0.139-0.093-0.026-0.225-0.108-0.244-0.193-0.022-0.095-0.035-0.204-0.035-0.316 0-0.087 0.008-0.173 0.023-0.256l-0.001 0.009c0.065-0.342 0.131-0.666 0.007-1.014-0.059-0.167-0.042-0.434 0.186-0.433 0.123 0 0.3 0.169 0.355 0.309 0.090 0.223 0.096 0.487 0.131 0.693zM24.639 22.695c-0.046 0.091-0.069 0.199-0.129 0.245-0.37 0.285-0.742 0.569-1.132 0.818-0.1 0.063-0.274 0.024-0.402-0.018-0.187-0.061-0.225-0.334-0.071-0.444 0.328-0.242 0.75-0.534 1.18-0.815l0.116-0.071c0.070-0.046 0.211 0.003 0.302 0.054 0.062 0.035 0.088 0.146 0.135 0.231zM19.916 4.436c0.060 0.039 0.174 0.074 0.189 0.135 0.147 0.603 0.289 1.208 0.406 1.819 0.033 0.17-0.17 0.264-0.305 0.162-0.426-0.319-0.69-1.499-0.442-1.992 0.025-0.049 0.088-0.074 0.152-0.125zM25.175 6.149c-0.128-0.095-0.266-0.144-0.285-0.225-0.020-0.089 0.046-0.242 0.118-0.313 0.312-0.31 0.639-0.603 0.979-0.875 0.114-0.089 0.352-0.153 0.44-0.083 0.208 0.162 0.098 0.392-0.046 0.559-0.194 0.226-0.387 0.464-0.611 0.647-0.172 0.137-0.392 0.196-0.594 0.291zM17.082 9.336l-0.311 0.327c-0.089-0.106-0.22-0.196-0.257-0.323-0.104-0.322-0.24-0.831-0.359-1.346l-0.034-0.172c-0.016-0.071 0.035-0.214 0.088-0.238 0.086-0.039 0.229-0.055 0.294 0 0.129 0.106 0.276 0.248 0.319 0.407 0.111 0.415 0.17 0.849 0.261 1.344zM13.675 17.708c-0.286 0.581-0.503 1.178-1.034 1.495-0.089 0.053-0.287-0.015-0.383-0.1-0.163-0.144 0-0.263 0.078-0.385 0.25-0.382 0.481-0.781 0.746-1.148 0.069-0.095 0.242-0.141 0.36-0.128 0.080 0.008 0.146 0.16 0.233 0.266zM16.9 17.757c0.149 0.096 0.257 0.124 0.277 0.187 0.033 0.103 0.051 0.266 0 0.338-0.082 0.114-0.221 0.18-0.342 0.257-0.312 0.199-0.62 0.409-0.945 0.579-0.045 0.019-0.097 0.030-0.151 0.030-0.080 0-0.154-0.024-0.216-0.065l0.001 0.001c-0.182-0.144-0.118-0.374 0.028-0.475 0.445-0.31 0.914-0.582 1.347-0.852zM33.042 15.122c-0.115 0.287-0.276 0.722-0.468 1.139-0.029 0.065-0.214 0.1-0.293 0.061-0.072-0.037-0.152-0.2-0.137-0.289 0.076-0.464 0.161-0.929 0.291-1.377 0.039-0.137 0.217-0.261 0.355-0.307 0.050-0.016 0.183 0.196 0.246 0.327 0.036 0.072 0.007 0.185 0.007 0.445zM13.585 11.663c0.505 0.504 0.445 1.189 0.502 1.821 0.010 0.118-0.121 0.285-0.226 0.37-0.055 0.044-0.278-0.027-0.283-0.068-0.063-0.458-0.13-1.12-0.181-1.786l-0.008-0.137c-0.004-0.055 0.114-0.121 0.197-0.2zM25.391 27.274c0.085 0.025 0.168 0.055 0.249 0.091 0.304 0.157 0.609 0.309 0.905 0.481 0.14 0.082 0.281 0.183 0.383 0.313 0.117 0.15-0.016 0.44-0.18 0.4-0.551-0.133-1.089-0.317-1.5-0.775-0.061-0.067-0.059-0.237-0.040-0.349 0.012-0.063 0.118-0.107 0.183-0.161zM18.691 11.847c0.029 0.101 0.129 0.259 0.093 0.357-0.185 0.522-0.398 1.033-0.616 1.54-0.027 0.063-0.141 0.118-0.209 0.108-0.059-0.008-0.14-0.101-0.156-0.171-0.115-0.565 0.249-1.576 0.655-1.831 0.042-0.026 0.108-0.003 0.233-0.003zM34.435 20.423c-0.063-0.045-0.195-0.099-0.264-0.204-0.027-0.042 0.061-0.233 0.137-0.294 0.34-0.274 0.685-0.535 1.046-0.771 0.097-0.063 0.299-0.067 0.371 0.004 0.065 0.065 0.075 0.313 0.016 0.404-0.302 0.468-0.682 0.825-1.305 0.861zM32.343 24.454c-0.261-0.030-0.375-0.033-0.483-0.060-0.046-0.011-0.115-0.072-0.116-0.111-0.001-0.008-0.001-0.018-0.001-0.028 0-0.083 0.022-0.16 0.061-0.227l-0.001 0.002c0.053-0.068 0.125-0.119 0.209-0.145l0.003-0.001c0.403-0.135 0.806-0.27 1.215-0.379 0.089-0.023 0.276 0.041 0.287 0.098 0.026 0.133-0.005 0.295-0.052 0.43-0.025 0.071-0.125 0.131-0.201 0.157-0.35 0.106-0.701 0.202-0.92 0.265zM20.215 21.219c-0.029 0.137-0.076 0.439-0.167 0.725-0.022 0.071-0.199 0.139-0.279 0.113s-0.176-0.174-0.173-0.267c0.008-0.528 0.032-1.057 0.080-1.582 0.010-0.115 0.141-0.215 0.216-0.323 0.091 0.106 0.236 0.199 0.259 0.321 0.051 0.272 0.041 0.558 0.064 1.013zM39.090 4.696c0-1.119 0.244-1.967 0.73-2.544 0.492-0.584 1.122-0.876 1.891-0.876s1.379 0.251 1.833 0.756c0.458 0.504 0.688 1.309 0.688 2.416s-0.244 1.942-0.73 2.508c-0.487 0.565-1.136 0.848-1.949 0.848-0.702 0-1.277-0.224-1.724-0.673-0.233-0.234-0.415-0.556-0.548-0.968-0.127-0.418-0.191-0.907-0.191-1.466zM41.685 1.368c-0.558 0-1.017 0.276-1.376 0.829-0.354 0.553-0.531 1.365-0.531 2.434s0.169 1.85 0.506 2.342c0.337 0.492 0.785 0.738 1.343 0.738 0.564 0 1.023-0.277 1.376-0.83 0.359-0.56 0.539-1.367 0.539-2.425 0-1.063-0.172-1.844-0.514-2.342-0.338-0.498-0.786-0.746-1.344-0.746zM45.665 7.766h-0.689v-6.454h0.688v2.969h2.695v-2.969h0.688v6.454h-0.688v-3.393h-2.695v3.393zM52.586 7.766h-0.108l0.721-6.454h0.274l1.741 5.965 1.732-5.965h0.274l0.721 6.454h-0.688l-0.572-5.163-1.501 5.163h-0.522l-1.518-5.098-0.555 5.098zM62.536 1.313c0.105 0.117 0.157 0.268 0.157 0.452 0 0.153-0.031 0.31-0.091 0.47l-1.484 3.346v2.185h-0.688v-1.982l-1.659-4.471h0.705l1.584 4.158 1.443-3.236c0.061-0.154 0.091-0.313 0.091-0.479s-0.042-0.295-0.124-0.387l0.065-0.056zM1.169 9.462c0.428-0.022 0.848-0.033 1.256-0.033 0.419 0 0.857 0.048 1.315 0.146 0.519 0.114 0.979 0.305 1.392 0.563l-0.018-0.011c0.458 0.261 0.842 0.601 1.155 1.024 0.321 0.411 0.579 0.959 0.775 1.64s0.292 1.511 0.292 2.486c0 0.975-0.146 1.853-0.438 2.632-0.283 0.769-0.673 1.36-1.169 1.771-0.965 0.801-2.129 1.202-3.493 1.202-0.477 0-0.979-0.022-1.505-0.065h-0.731v-11.355h1.169zM1.213 20.688c0.204 0.022 0.463 0.033 0.775 0.033s0.545-0.006 0.701-0.017c0.156-0.010 0.37-0.054 0.643-0.129 0.29-0.093 0.542-0.208 0.775-0.35l-0.016 0.009c0.234-0.141 0.477-0.346 0.731-0.617 0.264-0.285 0.488-0.612 0.662-0.968l0.011-0.024c0.418-0.888 0.628-2.047 0.628-3.476 0-1.019-0.112-1.896-0.336-2.632-0.224-0.748-0.483-1.3-0.775-1.657-0.278-0.351-0.624-0.636-1.020-0.837l-0.017-0.008c-0.409-0.216-0.735-0.341-0.98-0.374-0.239-0.031-0.516-0.049-0.797-0.049-0.017 0-0.035 0-0.052 0l0.003-0c-0.321 0-0.633 0.016-0.935 0.049v11.049zM39.327 20.818h-0.19v-11.372h0.496l6.079 10.511v-10.511h0.19v11.372h-1.066l-5.509-9.424v9.424zM54.9 9.446h0.19v6.498c0 1.701-0.302 2.952-0.906 3.753-0.604 0.79-1.393 1.186-2.367 1.186-0.614 0-1.135-0.059-1.563-0.179-0.428-0.129-0.833-0.362-1.213-0.699-0.779-0.671-1.169-2.024-1.169-4.061v-6.499h1.213v6.482c0 1.971 0.268 3.287 0.803 3.948 0.273 0.325 0.555 0.547 0.848 0.666 0.302 0.119 0.663 0.178 1.081 0.178 0.935 0 1.68-0.379 2.236-1.137 0.565-0.769 0.847-1.987 0.847-3.655v-6.482zM60.075 20.818h-1.213v-11.21h-2.527v-0.162h6.282v0.162h-2.542v11.21z"></path>
    </symbol>
    <symbol id="bg1" viewBox="0 0 40 32">
        <path fill="#fef3e4" d="M1.591 30.425c0 0.71-0.978 1.589-1.591 1.56v-31.985h39.537v10.425c0.015 6.224 0 18.224 0 19.351 0 0.707-1.078 0.409-1.953-0.728s0.743-4.767 0.875-5.817-0.263-3.236-4.331-5.904c-4.068-2.668-10.017-0.306-13.167 1.268s-5.827-0.612-10.114-1.924c-4.287-1.312-5.862 0.787-6.43 1.924s-0.56 4.198-1.785 4.636c-1.225 0.437-1.706 1.618-1.4 3.324s0.358 2.951 0.358 3.869z"></path>
    </symbol>
    <symbol id="bg2" viewBox="0 0 22 32">
        <path fill="#fef3e4" d="M1.132 8.461c0.234 1.714-0.649 1.576-1.119 1.292v21.049c0 4.114-0.224 2.331 0 3.49 0.136 0.703 0.876-2.702 0.681-3.49s-0.146-2.269 0.705-2.584 0.973-1.040 1.411-1.954c0.438-0.914 1.557-2.71 4.281-1.323s4.524 0.126 5.814-1.134c2.554-2.497 6.886 0.012 8.090 2.151 0.632 1.122-1.092 6.863 0 7.398 0.545 0.267 1.032 5.182 1.032-0.267v-24.974c-0.016 0.231-0.136 0.624-0.486 0.347-1.031-0.681-0.608-2.763-0.268-3.718 0.186-0.914 0.248-3.057-0.997-4.317-1.465-1.482-5.775 1.387-8.275 1.387-2.732 0-4.057-0.819-5.687-1.576s-2.919 0.536-3.43 1.576c-0.511 1.040-0.535 1.45-1.314 1.922-1.532 0.725-0.73 2.584-0.438 4.727z"></path>
    </symbol>
    <symbol id="social-facebook" viewBox="0 0 32 32">
      <path d="M22.512 0.006l-3.616-0.006c-4.064 0-6.69 3.092-6.69 7.876v3.63h-3.638c-0.314 0-0.568 0.294-0.568 0.654v5.26c0 0.36 0.254 0.652 0.568 0.652h3.638v13.276c0 0.36 0.254 0.652 0.568 0.652h4.746c0.314 0 0.568-0.292 0.568-0.652v-13.276h4.252c0.314 0 0.568-0.292 0.568-0.652l0.002-5.26c0-0.174-0.060-0.34-0.166-0.462-0.097-0.116-0.241-0.189-0.402-0.192h-4.254v-3.078c0-1.48 0.308-2.23 1.986-2.23h2.438c0.314 0 0.568-0.294 0.568-0.654v-4.884c0-0.36-0.254-0.652-0.568-0.654z"></path>
    </symbol>
    <symbol id="social-twitter" viewBox="0 0 32 32">
      <path d="M32 5.44c-1.097 0.551-2.37 0.957-3.712 1.152l-0.068 0.008c1.36-0.908 2.398-2.336 2.886-4.054-1.19 0.803-2.582 1.417-4.077 1.758l-0.083 0.016c-1.204-1.432-2.92-2.32-4.792-2.32-3.632 0-6.556 3.296-6.556 7.336 0 0.58 0.044 1.14 0.152 1.672-5.454-0.298-10.28-3.22-13.522-7.672-0.566 1.074-0.898 2.347-0.898 3.697 0 0.004 0 0.008 0 0.011v-0.001c0 2.54 1.17 4.79 2.914 6.094-1.103-0.038-2.121-0.369-2.988-0.918l0.024 0.014v0.080c0 3.566 2.274 6.526 5.256 7.208-0.534 0.162-1.116 0.24-1.72 0.24-0.42 0-0.844-0.026-1.242-0.124 0.85 2.904 3.262 5.040 6.13 5.108-2.232 1.952-5.066 3.128-8.134 3.128-0.538 0-1.054-0.028-1.57-0.1 2.906 2.094 6.35 3.29 10.064 3.29 12.072 0 18.672-11.18 18.672-20.868 0-0.324-0.010-0.638-0.024-0.948 1.308-1.060 2.402-2.32 3.253-3.744l0.035-0.064z"></path>
    </symbol>
    <symbol id="social-instagram" viewBox="0 0 32 32">
      <path d="M16.316 32h-0.32c-0.137 0.001-0.299 0.001-0.461 0.001-2.329 0-4.64-0.072-6.933-0.212l0.314 0.015c-2.066-0.126-3.952-0.84-5.454-2.064-1.45-1.182-2.44-2.78-2.942-4.75-0.44-1.716-0.46-3.4-0.484-5.026-0.016-1.17-0.032-2.554-0.036-3.96 0.004-1.414 0.020-2.8 0.036-3.968 0.022-1.628 0.046-3.31 0.484-5.026 0.5-1.97 1.492-3.568 2.94-4.75 1.506-1.224 3.392-1.94 5.46-2.064 2.252-0.138 4.57-0.2 7.084-0.196 0.132-0.001 0.288-0.001 0.443-0.001 2.335 0 4.653 0.071 6.952 0.212l-0.316-0.015c2.066 0.124 3.952 0.84 5.454 2.064 1.45 1.182 2.44 2.78 2.944 4.75 0.436 1.716 0.46 3.4 0.48 5.026 0.018 1.17 0.034 2.554 0.038 3.96v0.006c-0.004 1.408-0.020 2.792-0.036 3.96-0.022 1.63-0.046 3.312-0.482 5.028-0.504 1.97-1.494 3.568-2.944 4.75-1.502 1.224-3.388 1.94-5.454 2.064-1.968 0.125-4.268 0.196-6.585 0.196-0.064 0-0.129-0-0.193-0h0.010zM15.996 29.5c0.143 0.001 0.312 0.001 0.48 0.001 2.271 0 4.526-0.069 6.763-0.206l-0.307 0.015c1.56-0.096 2.916-0.602 4.026-1.508 1.026-0.836 1.734-1.99 2.1-3.43 0.364-1.428 0.386-2.96 0.406-4.444 0.016-1.16 0.032-2.534 0.036-3.928-0.004-1.394-0.020-2.768-0.036-3.93-0.020-1.48-0.040-3.014-0.406-4.44-0.368-1.44-1.074-2.596-2.1-3.432-1.11-0.906-2.464-1.412-4.026-1.508-1.93-0.122-4.186-0.191-6.457-0.191-0.167 0-0.333 0-0.5 0.001l0.026-0c-0.144-0.001-0.314-0.001-0.485-0.001-2.269 0-4.522 0.069-6.756 0.206l0.307-0.015c-1.56 0.096-2.916 0.602-4.026 1.508-1.026 0.836-1.734 1.99-2.1 3.43-0.364 1.428-0.386 2.96-0.406 4.442-0.016 1.162-0.032 2.538-0.036 3.932 0.004 1.39 0.020 2.766 0.036 3.926 0.020 1.484 0.040 3.016 0.406 4.444 0.366 1.44 1.074 2.594 2.1 3.43 1.11 0.906 2.464 1.412 4.026 1.508 2.2 0.134 4.468 0.196 6.928 0.19zM15.936 23.812c-4.312-0.006-7.805-3.5-7.81-7.812v-0c0.005-4.313 3.501-7.809 7.814-7.812h0c4.312 0.006 7.805 3.5 7.81 7.812v0c-0.005 4.313-3.499 7.807-7.812 7.812h-0zM15.936 10.688c-2.931 0.006-5.305 2.381-5.31 5.312v0c0.005 2.933 2.381 5.309 5.314 5.312h0c2.931-0.006 5.305-2.381 5.31-5.312v-0c-0.005-2.932-2.38-5.307-5.312-5.312h-0zM24.626 5.688c-0.018-0.001-0.040-0.001-0.061-0.001-1.036 0-1.876 0.84-1.876 1.876s0.84 1.876 1.876 1.876c0.022 0 0.043-0 0.064-0.001l-0.003 0c1.009-0.034 1.815-0.86 1.815-1.875s-0.805-1.841-1.812-1.875l-0.003-0z"></path>
    </symbol>
    <symbol id="prog-people" viewBox="0 0 32 32">
      <path d="M11.887 0c-3.293 0-5.974 3.077-5.974 6.856s2.682 6.856 5.975 6.856 5.975-3.077 5.975-6.856-2.683-6.856-5.975-6.856zM11.887 12.562c-2.749 0-4.979-2.566-4.979-5.714 0-3.146 2.236-5.713 4.979-5.713 2.749 0 4.979 2.566 4.979 5.713 0 3.149-2.236 5.714-4.979 5.714zM24.125 2.845c-2.474 0-4.484 2.307-4.484 5.146s2.010 5.146 4.484 5.146c2.476 0 4.485-2.307 4.485-5.146s-2.010-5.146-4.485-5.146zM24.125 12c-1.924 0-3.488-1.795-3.488-4.003s1.564-4.003 3.488-4.003c1.925 0 3.489 1.795 3.489 4.003s-1.564 4.003-3.489 4.003z"></path>
      <path d="M32.148 20.678c-0.452-3.126-2.145-5.761-5.029-7.142 0 0-1.276 1.107-2.994 1.073-1.875-0.042-2.994-1.073-2.994-1.073s-1.393 0.596-2.516 1.837c-1.039-1.059-2.793-1.92-2.793-1.92s-1.606 1.402-3.941 1.38c-2.45-0.020-3.928-1.381-3.928-1.381s-5.298 2.089-6.415 9.176c0 0-1.198 3.757 1.576 9.372h17.554s1.247-2.488 1.467-4.003h8.731c2.145-3.73 1.284-7.319 1.284-7.319zM20.050 30.857h-16.32c-2.131-4.646-1.21-8.040-1.21-8.040 0.52-3.555 2.511-6.554 5.359-8.077 1.123 0.773 2.513 1.235 4.011 1.235s2.888-0.462 4.035-1.251l-0.024 0.016c2.848 1.523 4.838 4.522 5.359 8.077-0.006 0 0.879 4.178-1.211 8.040zM30.285 26.854h-7.949c0.305-2.019-0.099-4.227-0.099-4.227-0.36-2.496-1.386-4.746-2.89-6.484 0.49-0.513 1.051-0.951 1.669-1.3l0.036-0.019c0.863 0.58 1.926 0.925 3.070 0.925s2.207-0.345 3.090-0.938l-0.020 0.013c2.108 1.157 3.588 3.393 3.972 6.043 0 0 0.727 2.833-0.879 5.987z"></path>
    </symbol>
    <symbol id="prog-hat" viewBox="0 0 32 32">
      <path d="M23.048 8.572c-0.122-0.002-0.231-0.057-0.304-0.144l-0-0.001c-0.078-0.092-0.125-0.212-0.125-0.343 0-0.002 0-0.003 0-0.005v0c-0.033-1.889-0.712-3.689-1.888-5.011s-2.757-2.063-4.404-2.063-3.228 0.741-4.404 2.063c-1.178 1.322-1.855 3.122-1.888 5.011 0 0.131-0.045 0.256-0.125 0.348-0.074 0.087-0.182 0.143-0.304 0.145h-0c-0.122-0.002-0.23-0.058-0.303-0.144l-0.001-0.001c-0.079-0.092-0.127-0.213-0.127-0.345 0-0.001 0-0.002 0-0.004v0c0.029-2.154 0.796-4.209 2.134-5.722 1.34-1.509 3.141-2.358 5.018-2.358 1.879 0 3.681 0.847 5.020 2.359 1.338 1.51 2.104 3.566 2.132 5.72 0 0.131-0.045 0.256-0.125 0.348-0.073 0.087-0.182 0.143-0.303 0.145h-0z"></path>
      <path d="M24.302 19.732c-0.122-0.001-0.231-0.056-0.304-0.143l-0-0.001c-0.080-0.092-0.128-0.213-0.128-0.346 0-0 0-0.001 0-0.001v0c0-0.132 0.044-0.256 0.124-0.351 0.073-0.088 0.181-0.143 0.303-0.146h0c1.637-0.012 3.205-0.759 4.366-2.083 1.162-1.322 1.824-3.116 1.846-4.995-0.017-1.896-0.687-3.707-1.866-5.037s-2.769-2.068-4.422-2.054c-0.635 0-1.266 0.106-1.873 0.32-0.035 0.012-0.076 0.019-0.119 0.019-0.076 0-0.147-0.022-0.207-0.061l0.002 0.001c-0.102-0.066-0.176-0.167-0.207-0.286l-0.001-0.003c-0.012-0.043-0.019-0.093-0.019-0.144 0-0.082 0.018-0.16 0.050-0.231l-0.001 0.003c0.052-0.115 0.142-0.202 0.25-0.243 0.631-0.229 1.359-0.361 2.118-0.361 0.003 0 0.005 0 0.008 0h-0c1.882-0.014 3.69 0.828 5.030 2.342s2.102 3.578 2.118 5.734c-0.023 2.138-0.774 4.179-2.095 5.687-1.32 1.508-3.104 2.362-4.966 2.377h-0.005zM8.346 19.732h-0.004c-1.864-0.015-3.647-0.869-4.966-2.377-1.322-1.508-2.075-3.549-2.095-5.687 0.017-2.157 0.778-4.22 2.118-5.734s3.149-2.356 5.030-2.342c0.719-0.001 1.435 0.12 2.125 0.362 0.058 0.020 0.108 0.051 0.15 0.090l-0-0c0.044 0.041 0.080 0.091 0.106 0.146l0.001 0.003c0.033 0.069 0.053 0.149 0.053 0.235 0 0.118-0.037 0.228-0.101 0.317l0.001-0.002c-0.036 0.049-0.079 0.090-0.13 0.12l-0.002 0.001c-0.057 0.034-0.126 0.055-0.199 0.055-0.047 0-0.092-0.008-0.134-0.024l0.003 0.001c-0.556-0.202-1.198-0.319-1.867-0.319-0.002 0-0.005 0-0.007 0h0c-1.651-0.013-3.242 0.724-4.421 2.054s-1.851 3.141-1.866 5.037c0.020 1.879 0.684 3.672 1.844 4.995 1.162 1.324 2.73 2.071 4.367 2.083 0.060 0.001 0.116 0.015 0.166 0.039l-0.002-0.001c0.051 0.026 0.1 0.061 0.14 0.108 0.075 0.094 0.121 0.215 0.121 0.346 0 0.134-0.047 0.256-0.126 0.352l0.001-0.001c-0.039 0.044-0.085 0.080-0.138 0.105l-0.003 0.001c-0.048 0.023-0.104 0.037-0.164 0.037h-0z"></path>
      <path d="M24.302 32h-15.956c-0.122-0.002-0.231-0.057-0.304-0.144l-0.001-0.001c-0.078-0.092-0.125-0.212-0.125-0.343 0-0.002 0-0.003 0-0.005v0-12.269c0-0.131 0.045-0.256 0.125-0.349 0.074-0.087 0.183-0.142 0.304-0.143h0c0.114 0 0.223 0.051 0.303 0.143 0.081 0.093 0.125 0.218 0.125 0.349v11.773h15.098v-11.773c0-0.131 0.045-0.256 0.125-0.349 0.074-0.087 0.183-0.142 0.304-0.143h0c0.114 0 0.223 0.051 0.303 0.143 0.081 0.093 0.127 0.218 0.127 0.349v12.268c0 0.131-0.046 0.256-0.127 0.348-0.073 0.087-0.182 0.143-0.303 0.145h-0z"></path>
      <path d="M27.293 27.222h-15.955c-0.122-0.002-0.231-0.057-0.304-0.144l-0.001-0.001c-0.078-0.092-0.125-0.212-0.125-0.343 0-0.002 0-0.004 0-0.006v0c0-0.131 0.045-0.256 0.125-0.348 0.074-0.087 0.182-0.143 0.304-0.145h15.955c0.115 0 0.224 0.051 0.305 0.145 0.081 0.092 0.125 0.218 0.125 0.348 0 0.132-0.045 0.256-0.125 0.349-0.074 0.087-0.182 0.143-0.304 0.145h-0z"></path>
    </symbol>
    <symbol id="prog-clock" viewBox="0 0 32 32">
      <path d="M16 0c-8.823 0-16 7.177-16 16 0 8.822 7.177 16 16 16 8.822 0 16-7.178 16-16 0-8.823-7.178-16-16-16zM16 30.934c-8.234 0-14.934-6.7-14.934-14.934s6.7-14.934 14.934-14.934 14.934 6.7 14.934 14.934-6.7 14.934-14.934 14.934z"></path>
      <path d="M16.534 13.878v-5.409c0-0.295-0.239-0.534-0.534-0.534s-0.534 0.239-0.534 0.534v5.409c-0.747 0.2-1.324 0.777-1.52 1.51l-0.003 0.015h-3.809c-0.008-0-0.017-0.001-0.026-0.001-0.295 0-0.534 0.239-0.534 0.534s0.239 0.534 0.534 0.534c0.009 0 0.018-0 0.027-0.001l-0.001 0h3.809c0.238 0.918 1.066 1.6 2.057 1.6 1.178 0 2.134-0.956 2.134-2.132 0-0.992-0.684-1.819-1.6-2.058zM16 17.002c-0.589-0.001-1.066-0.478-1.066-1.068s0.478-1.068 1.068-1.068c0 0 0.001 0 0.001 0h-0c0.589 0.001 1.066 0.478 1.066 1.068s-0.478 1.068-1.068 1.068c-0 0-0.001 0-0.001 0h0zM16 5.268c0.294 0 0.534-0.238 0.534-0.532v-0.534c0-0.295-0.239-0.534-0.534-0.534s-0.534 0.239-0.534 0.534v0 0.534c0 0.294 0.239 0.532 0.534 0.532zM16 26.602c-0.295 0-0.534 0.239-0.534 0.534v0 0.532c0 0.295 0.239 0.534 0.534 0.534s0.534-0.239 0.534-0.534v-0.532c0-0 0-0.001 0-0.001 0-0.294-0.238-0.532-0.532-0.532-0 0-0.001 0-0.001 0h0zM27.734 15.402h-0.534c-0.008-0-0.017-0.001-0.026-0.001-0.295 0-0.534 0.239-0.534 0.534s0.239 0.534 0.534 0.534c0.009 0 0.018-0 0.027-0.001l-0.001 0h0.534c0.008 0 0.017 0.001 0.026 0.001 0.295 0 0.534-0.239 0.534-0.534s-0.239-0.534-0.534-0.534c-0.009 0-0.018 0-0.027 0.001l0.001-0zM4.8 15.402h-0.534c-0.294 0-0.533 0.239-0.533 0.533s0.239 0.533 0.533 0.533v0h0.534c0.008 0 0.017 0.001 0.026 0.001 0.295 0 0.534-0.239 0.534-0.534s-0.239-0.534-0.534-0.534c-0.009 0-0.018 0-0.027 0.001l0.001-0zM23.919 7.261l-0.378 0.378c-0.096 0.097-0.156 0.23-0.156 0.377 0 0.295 0.239 0.534 0.534 0.534 0.148 0 0.281-0.060 0.378-0.157v0l0.376-0.378c0.096-0.096 0.156-0.23 0.156-0.377 0-0.294-0.239-0.533-0.533-0.533-0.147 0-0.28 0.060-0.377 0.156v0zM7.703 23.478l-0.376 0.378c-0.096 0.096-0.156 0.23-0.156 0.377 0 0.294 0.239 0.533 0.533 0.533 0.147 0 0.28-0.060 0.377-0.156l0.378-0.378c0.096-0.097 0.156-0.23 0.156-0.377 0-0.295-0.239-0.534-0.534-0.534-0.147 0-0.281 0.060-0.378 0.157v0zM24.297 23.478c-0.097-0.097-0.23-0.156-0.378-0.156-0.295 0-0.534 0.239-0.534 0.534 0 0.147 0.060 0.281 0.156 0.378v0l0.378 0.376c0.096 0.097 0.23 0.158 0.378 0.158s0.281-0.060 0.378-0.158l0-0c0.097-0.096 0.157-0.23 0.157-0.378s-0.060-0.281-0.157-0.378l-0-0-0.378-0.376zM8.081 7.261c-0.097-0.097-0.23-0.156-0.378-0.156-0.295 0-0.534 0.239-0.534 0.534 0 0.147 0.060 0.281 0.156 0.378v0l0.378 0.376c0.096 0.097 0.23 0.157 0.378 0.157s0.281-0.060 0.378-0.157l0-0c0.097-0.096 0.157-0.23 0.157-0.378s-0.060-0.281-0.157-0.378l-0-0-0.378-0.376z"></path>
    </symbol>
    <symbol id="prog-chat" viewBox="0 0 32 32">
      <path d="M24.621 14.939c0-6.705-6.161-11.099-12.311-11.099-6.175 0-12.31 4.416-12.31 11.099 0 2.529 0.965 5.002 2.719 6.963 0.048 0.057 0.077 0.132 0.077 0.214 0 0.030-0.004 0.058-0.011 0.086l0.001-0.002c-0.55 2.314-1.855 4.403-2.39 5.197-0.092 0.138-0.147 0.307-0.147 0.49 0 0.13 0.028 0.253 0.078 0.364l-0.002-0.006c0.12 0.271 0.357 0.438 0.621 0.438h0.018c2.619-0.074 5.654-0.922 7.529-3.039 0.045-0.053 0.112-0.086 0.187-0.086 0.023 0 0.046 0.003 0.067 0.009l-0.002-0c1.152 0.312 2.353 0.472 3.566 0.472 6.173 0 12.311-4.415 12.311-11.1zM8.96 24.52c-0.085-0.023-0.182-0.037-0.282-0.037-0.338 0-0.64 0.152-0.842 0.392l-0.001 0.002c-1.876 2.116-4.94 2.598-6.39 2.705 0.663-1.050 1.74-2.976 2.245-5.1 0.028-0.11 0.045-0.236 0.045-0.366 0-0.377-0.137-0.721-0.364-0.987l0.002 0.002c-1.594-1.782-2.436-3.923-2.436-6.193 0-5.527 5.102-10.022 11.373-10.022 6.272 0 11.373 4.495 11.373 10.022s-5.101 10.024-11.373 10.024c-0.005 0-0.011 0-0.016 0-1.186 0-2.334-0.162-3.423-0.464l0.090 0.021z"></path>
      <path d="M27.635 23.875c2.733-1.585 4.365-4.285 4.365-7.224 0-4.154-3.273-7.703-7.782-8.439-0.256-0.042-0.494 0.163-0.53 0.456-0.037 0.294 0.141 0.567 0.397 0.609 4.045 0.659 6.979 3.761 6.979 7.374 0 2.525-1.44 4.867-3.85 6.264-0.47 0.273-0.721 0.873-0.611 1.462 0.228 1.233 0.714 2.373 1.103 3.146-2.767-0.529-3.817-2.052-4.148-2.711-0.205-0.408-0.589-0.66-1.001-0.66h-0.038c-0.52 0-1.041-0.041-1.546-0.123-0.256-0.041-0.494 0.164-0.53 0.458s0.142 0.566 0.399 0.607c0.55 0.090 1.114 0.134 1.677 0.134h0.038c0.079 0 0.151 0.046 0.188 0.122 1.27 2.524 4.188 3.168 5.385 3.328 0.264 0.035 0.515-0.102 0.655-0.362 0.066-0.12 0.105-0.262 0.105-0.414 0-0.154-0.040-0.299-0.111-0.425l0.002 0.004c-0.361-0.644-1.004-1.933-1.262-3.328-0.003-0.016-0.006-0.035-0.006-0.054 0-0.093 0.048-0.176 0.121-0.223l0.001-0.001zM5.016 13.015c-0.896 0-1.626 0.837-1.626 1.865s0.73 1.864 1.626 1.864c0.896 0 1.626-0.836 1.626-1.864s-0.73-1.865-1.626-1.865zM5.016 15.668c-0.379 0-0.687-0.355-0.687-0.788 0-0.435 0.307-0.788 0.687-0.788 0.379 0 0.687 0.353 0.687 0.788s-0.308 0.788-0.687 0.788zM9.651 13.015c-0.896 0-1.626 0.837-1.626 1.865s0.73 1.864 1.626 1.864c0.896 0 1.624-0.836 1.624-1.864s-0.73-1.865-1.626-1.865zM9.651 15.668c-0.379 0-0.687-0.355-0.687-0.788 0-0.435 0.307-0.788 0.687-0.788 0.378 0 0.686 0.353 0.686 0.788s-0.307 0.788-0.686 0.788zM14.285 13.015c-0.896 0-1.624 0.837-1.624 1.865s0.73 1.864 1.626 1.864c0.896 0 1.624-0.836 1.624-1.864s-0.73-1.865-1.626-1.865zM14.285 15.668c-0.379 0-0.686-0.355-0.686-0.788 0-0.435 0.307-0.788 0.686-0.788s0.687 0.353 0.687 0.788c0 0.435-0.307 0.788-0.687 0.788zM18.92 13.015c-0.896 0-1.626 0.837-1.626 1.865s0.73 1.864 1.626 1.864c0.896 0 1.626-0.836 1.626-1.864s-0.73-1.865-1.626-1.865zM18.92 15.668c-0.379 0-0.687-0.355-0.687-0.788 0-0.435 0.308-0.788 0.687-0.788s0.687 0.353 0.687 0.788c0 0.435-0.308 0.788-0.687 0.788z"></path>
    </symbol>
    <symbol id="star-full" viewBox="0 0 34 32">
      <path fill="#ab816c" style="fill: var(--color3, #ab816c)" d="M15.591 2.789c0.505-1.551 2.7-1.551 3.203 0l2.511 7.727c0.227 0.68 0.858 1.162 1.601 1.162 0 0 0 0 0 0h8.123c1.634 0 2.311 2.088 0.99 3.048l-6.572 4.775c-0.423 0.31-0.694 0.804-0.694 1.362 0 0.186 0.030 0.365 0.086 0.533l-0.003-0.012 2.509 7.725c0.505 1.553-1.272 2.843-2.592 1.883l-6.572-4.775c-0.274-0.201-0.618-0.321-0.989-0.321s-0.716 0.12-0.994 0.325l0.005-0.003-6.573 4.775c-1.319 0.96-3.096-0.33-2.592-1.883l2.511-7.725c0.052-0.155 0.082-0.335 0.082-0.521 0-0.558-0.271-1.052-0.689-1.359l-0.005-0.003-6.573-4.775c-1.319-0.96-0.64-3.048 0.99-3.048h8.125c0.743-0.001 1.373-0.482 1.597-1.15l0.003-0.012 2.511-7.727z"></path>
    </symbol>
    <symbol id="star-empty" viewBox="0 0 34 32">
      <path fill="none" stroke="#ab816c" style="stroke: var(--color3, #ab816c)" stroke-linejoin="miter" stroke-linecap="butt" stroke-miterlimit="4" stroke-width="1.6842" d="M15.901 3.048c0.113-0.341 0.429-0.582 0.801-0.582s0.688 0.241 0.799 0.576l0.002 0.006 2.509 7.727c0.339 1.022 1.286 1.747 2.403 1.747 0 0 0 0 0 0h8.125c0.465 0.001 0.841 0.377 0.841 0.842 0 0.279-0.135 0.525-0.344 0.679l-0.002 0.002-6.572 4.775c-0.634 0.465-1.041 1.207-1.041 2.044 0 0.279 0.045 0.547 0.129 0.798l-0.005-0.018 2.509 7.727c0.026 0.078 0.041 0.168 0.041 0.261 0 0.465-0.377 0.842-0.842 0.842-0.187 0-0.359-0.061-0.499-0.163l0.002 0.002-6.572-4.775c-0.411-0.301-0.927-0.482-1.485-0.482s-1.074 0.181-1.492 0.487l0.007-0.005-6.572 4.775c-0.137 0.101-0.31 0.162-0.497 0.162-0.465 0-0.842-0.377-0.842-0.842 0-0.094 0.015-0.185 0.044-0.269l-0.002 0.006 2.509-7.725c0.079-0.233 0.124-0.502 0.124-0.782 0-0.837-0.407-1.578-1.033-2.038l-0.007-0.005-6.572-4.773c-0.211-0.155-0.346-0.402-0.346-0.68 0-0.465 0.376-0.842 0.841-0.842h8.123c0 0 0 0 0 0 1.117 0 2.064-0.724 2.398-1.729l0.005-0.018 2.509-7.725z"></path>
    </symbol>
    <symbol id="phone" viewBox="0 0 32 32">
      <path d="M29.43 20.47c-0.010 0-0.021 0-0.033 0-2.027 0-3.978-0.324-5.805-0.924l0.131 0.037c-0.894-0.295-1.991-0.025-2.535 0.519l-3.599 2.649c-4.172-2.171-6.742-4.677-8.938-8.711l2.634-3.414c0.687-0.667 0.93-1.642 0.638-2.555-0.577-1.653-0.911-3.559-0.911-5.543 0-0.009 0-0.018 0-0.026v0.001c-0.002-1.381-1.157-2.503-2.57-2.503h-5.876c-1.415 0-2.567 1.122-2.567 2.503 0 15.815 13.201 28.682 29.43 28.682 1.415 0 2.567-1.122 2.567-2.503v-5.711c0-1.378-1.152-2.501-2.567-2.501z"></path>
    </symbol>
    <symbol id="location" viewBox="0 0 23 32">
      <path d="M11.733 0c6.47 0 11.733 5.131 11.733 11.435 0 2.496-0.811 4.866-2.34 6.854l-8.67 11.381c-0.021 0.026-0.055 0.036-0.079 0.062-0.163 0.178-0.396 0.29-0.656 0.29-0.289 0-0.546-0.138-0.708-0.352l-0.002-0.002c-2.498-3.245-7.074-9.308-8.832-11.595l-0.004-0.004-0.011-0.013c-1.353-1.824-2.165-4.12-2.165-6.605 0-0.006 0-0.012 0-0.017v0.001c0-6.304 5.263-11.435 11.733-11.435zM11.733 17.604c3.484 0 6.33-2.773 6.33-6.17 0-3.394-2.846-6.17-6.33-6.17s-6.33 2.773-6.33 6.17c0 3.394 2.846 6.17 6.33 6.17z"></path>
    </symbol>
    <symbol id="menu" viewBox="0 0 60 32">
      <path d="M2 0h56c1.105 0 2 0.895 2 2s-0.895 2-2 2h-56c-1.105 0-2-0.895-2-2s0.895-2 2-2z"></path>
      <path d="M2 14h56c1.105 0 2 0.895 2 2s-0.895 2-2 2h-56c-1.105 0-2-0.895-2-2s0.895-2 2-2z"></path>
      <path d="M2 28h56c1.105 0 2 0.895 2 2s-0.895 2-2 2h-56c-1.105 0-2-0.895-2-2s0.895-2 2-2z"></path>
    </symbol>
    <symbol id="close" viewBox="0 0 32 32">
      <path d="M30.354 32c0.909-0.001 1.645-0.737 1.645-1.646 0-0.455-0.184-0.866-0.483-1.164l-28.704-28.709c-0.298-0.298-0.71-0.482-1.164-0.482-0.909 0-1.647 0.737-1.647 1.647 0 0.455 0.184 0.866 0.482 1.164l28.708 28.708c0.322 0.32 0.743 0.484 1.164 0.484z"></path>
      <path d="M1.644 32c0.421 0 0.843-0.16 1.164-0.484l28.709-28.706c0.298-0.298 0.482-0.71 0.482-1.164 0-0.909-0.737-1.647-1.647-1.647-0.455 0-0.866 0.184-1.164 0.482l-28.709 28.709c-0.297 0.298-0.481 0.709-0.481 1.163 0 0.909 0.736 1.646 1.645 1.646h0z"></path>
    </symbol>
  </defs>
</svg>
